<?xml version="1.0" encoding="utf-8"?>
<!-- Generator: Adobe Illustrator 16.0.0, SVG Export Plug-In . SVG Version: 6.00 Build 0)  -->
<!DOCTYPE svg PUBLIC "-//W3C//DTD SVG 1.1//EN" "http://www.w3.org/Graphics/SVG/1.1/DTD/svg11.dtd">
<svg version="1.1" xmlns="http://www.w3.org/2000/svg" xmlns:xlink="http://www.w3.org/1999/xlink" x="0px" y="0px" width="32px"
	 height="32px" viewBox="0 0 32 32" enable-background="new 0 0 32 32" xml:space="preserve">
<g id="Layer_1" display="none">
	
		<line display="inline" fill="none" stroke="#000000" stroke-width="5" stroke-miterlimit="10" x1="15.5" y1="2" x2="15.5" y2="30"/>
	
		<line display="inline" fill="none" stroke="#000000" stroke-width="5" stroke-miterlimit="10" x1="26" y1="11.5" x2="5" y2="11.5"/>
</g>
<g id="Layer_3">
	<circle cx="16" cy="16" r="15.75"/>
</g>
<g id="Layer_2">
	<g>
		<g>
			<g>
				<polygon fill="#FFFFFF" points="26,10 26,15 18,15 18,31 13,31 13,15 5,15 5,10 13,10 13,3 18,3 18,10 				"/>
				<path fill="#FF0000" d="M19,31h-6V15H5V9h8V2h6v7h8v6h-8V31z M14,30h4V14h8v-4h-8V3h-4v7H6v4h8V30z"/>
			</g>
		</g>
	</g>
	<g>
	</g>
	<g>
	</g>
	<g>
	</g>
	<g>
	</g>
	<g>
	</g>
	<g>
	</g>
	<g>
	</g>
	<g>
	</g>
	<g>
	</g>
	<g>
	</g>
	<g>
	</g>
	<g>
	</g>
	<g>
	</g>
	<g>
	</g>
	<g>
	</g>
</g>
</svg>
